<?xml version="1.0" encoding="UTF-8"?>
<svg id="FiveIcon" xmlns="http://www.w3.org/2000/svg" viewBox="0 0 301 299.72">
  <defs>
    <style>
      .cls-1 {
        fill: #2fa3dd;
      }

      .cls-2 {
        fill: #e0ca2d;
      }

      .cls-3 {
        fill: #0a1d56;
      }
    </style>
  </defs>
  <rect class="cls-2" x="137.4" y="219.82" width="16.35" height="24.24"/>
  <rect class="cls-2" x="137.4" y="253.28" width="16.35" height="26.01"/>
  <rect class="cls-2" x="162.53" y="219.82" width="16.32" height="24.24"/>
  <rect class="cls-2" x="162.53" y="253.28" width="16.32" height="26.01"/>
  <path class="cls-1" d="M276.55,0c8.27,0,16.42.46,24.45,1.34v298.1l-104,.09,84.16-5.84-4.61-5.08-3.37-3.72-7.67-8.44-5.28-5.84-102.78-113.23-97.85,97.85c-1.17-7.06-1.98-14.22-2.43-21.49-.3-4.61-.44-9.24-.44-13.92C56.73,98.41,155.15,0,276.55,0Z"/>
  <g>
    <polygon class="cls-3" points="301 199 301 276.41 293.26 267.79 289.51 263.62 289.48 263.62 282.29 255.61 276.51 249.2 166.43 130.11 269.48 182.09 269.48 204.86 287.2 225.75 281.01 188.28 270.65 125.57 289.02 134.41 300.59 198.78 301 199"/>
    <rect class="cls-3" x="137.4" y="219.82" width="16.35" height="24.24"/>
    <rect class="cls-3" x="137.4" y="253.28" width="16.35" height="26.01"/>
    <rect class="cls-3" x="162.53" y="253.28" width="16.32" height="26.01"/>
    <rect class="cls-3" x="162.53" y="219.82" width="16.32" height="24.24"/>
    <polygon class="cls-3" points="296.91 282.23 301 286.69 301 299.44 197 299.53 281.16 293.69 276.55 288.61 273.18 284.89 265.51 276.45 260.23 270.61 157.45 157.38 22.05 292.78 70.35 296.18 119.24 299.6 71.68 299.65 0 299.72 0 292.85 57.17 233.74 157.45 130.11 268.4 251.14 274.69 257.99 281.58 265.51 285.8 270.12 294.63 279.74 296.91 282.23"/>
  </g>
</svg>