<?xml version="1.0" encoding="UTF-8"?>
<svg id="LogoCouleur" xmlns="http://www.w3.org/2000/svg" viewBox="0 0 1000 544.79">
  <defs>
    <style>
      .cls-1 {
        fill: #2fa3dd;
      }

      .cls-2 {
        fill: #e0ca2d;
      }

      .cls-3 {
        fill: #0a1d56;
      }
    </style>
  </defs>
  <path class="cls-2" d="M127.2,538.39l88.38,6.19-85.98.08c-.84-2.06-1.64-4.17-2.4-6.27Z"/>
  <rect class="cls-2" x="248.42" y="400.33" width="29.56" height="43.83"/>
  <rect class="cls-2" x="248.42" y="460.83" width="29.56" height="47.03"/>
  <rect class="cls-2" x="293.85" y="400.33" width="29.51" height="43.83"/>
  <rect class="cls-2" x="293.85" y="460.83" width="29.51" height="47.03"/>
  <path class="cls-2" d="M865.85,543.99l5.01-.55c-.04.21-.13.38-.21.55h-4.8Z"/>
  <path class="cls-1" d="M897.43,400.33c0,7.58-.21,15.12-.63,22.57-.46,8.59-1.22,17.09-2.27,25.52l-94.02-99.79-181.94,186.91,106.74,8.59-369.14.34,152.17-10.57-8.34-9.18-6.11-6.74-13.85-15.24-9.56-10.57-185.81-204.72-176.93,176.93c-2.11-12.76-3.58-25.73-4.38-38.86-.55-8.34-.8-16.72-.8-25.18C102.57,180.83,280.51,2.9,500,2.9s397.43,177.94,397.43,397.43Z"/>
  <g>
    <polygon class="cls-3" points="569.36 417.38 569.36 436.87 701.23 405.42 569.36 446.64 569.36 468.58 654.03 448.37 569.36 474.81 569.36 499.94 611.25 489.92 569.36 503.02 569.36 530.6 549.99 509.08 546.62 505.33 530.2 487.06 523.42 479.52 523.38 479.52 510.37 465.04 499.92 453.46 300.89 238.14 487.21 332.11 487.21 373.29 519.25 411.06 508.05 343.31 489.33 229.94 522.54 245.92 543.46 362.3 569.36 376.15 569.36 376.32 800.56 320.91 569.36 393.5 569.36 404.79 739.84 364.11 569.36 417.38"/>
    <rect class="cls-3" x="248.42" y="400.33" width="29.56" height="43.83"/>
    <rect class="cls-3" x="248.42" y="460.83" width="29.56" height="47.03"/>
    <rect class="cls-3" x="293.85" y="460.83" width="29.51" height="47.03"/>
    <rect class="cls-3" x="293.85" y="400.33" width="29.51" height="43.83"/>
    <rect class="cls-3" x="774.86" y="433.76" width="21.1" height="31.33"/>
    <rect class="cls-3" x="774.86" y="477" width="21.1" height="33.6"/>
    <rect class="cls-3" x="807.32" y="477" width="21.1" height="33.6"/>
    <rect class="cls-3" x="807.32" y="433.76" width="21.1" height="31.33"/>
    <polygon class="cls-3" points="1000 532.24 1000 543.86 870.65 543.99 865.85 543.99 870.86 543.44 973.43 532.16 894.53 448.41 800.51 348.62 618.57 535.53 725.31 544.12 356.17 544.45 508.34 533.89 500 524.71 493.89 517.97 480.04 502.73 470.48 492.16 284.67 287.44 39.87 532.24 127.2 538.39 215.58 544.58 129.6 544.66 0 544.79 0 532.37 103.37 425.51 284.67 238.14 485.26 456.96 496.63 469.34 509.1 482.94 516.72 491.27 532.67 508.66 536.8 513.17 556.46 534.6 580.34 534.94 800.51 320.92 896.8 422.9 1000 532.24"/>
  </g>
</svg>