<?xml version="1.0" encoding="UTF-8"?>
<svg xmlns="http://www.w3.org/2000/svg" version="1.1" viewBox="0 0 1000 1000">
  <defs>
    <style>
      .cls-1 {
        fill: #2fa3dd;
      }

      .cls-2 {
        fill: #fff;
      }

      .cls-3 {
        display: none;
      }

      .cls-4 {
        fill: #e0ca2d;
      }

      .cls-5 {
        fill: #0a1d56;
      }
    </style>
  </defs>
  <!-- Generator: Adobe Illustrator 28.7.3, SVG Export Plug-In . SVG Version: 1.2.0 Build 164)  -->
  <g>
    <g id="LogoCouleur">
      <path class="cls-4" d="M193.56,629.5l72.95,5.11-70.97.07c-.69-1.7-1.35-3.44-1.98-5.18Z"/>
      <rect class="cls-4" x="293.62" y="515.53" width="24.4" height="36.18"/>
      <rect class="cls-4" x="293.62" y="565.48" width="24.4" height="38.82"/>
      <rect class="cls-4" x="331.12" y="515.53" width="24.36" height="36.18"/>
      <rect class="cls-4" x="331.12" y="565.48" width="24.36" height="38.82"/>
      <path class="cls-4" d="M803.27,634.12l4.14-.45c-.04.17-.11.31-.17.45h-3.96Z"/>
      <path class="cls-1" d="M829.34,515.53c0,6.26-.17,12.48-.52,18.63-.38,7.09-1.01,14.11-1.88,21.06l-77.61-82.37-150.18,154.28,88.1,7.09-304.7.28,125.61-8.72-6.88-7.58-5.04-5.56-11.43-12.58-7.89-8.72-153.37-168.98-146.04,146.04c-1.74-10.53-2.95-21.24-3.61-32.08-.45-6.88-.66-13.8-.66-20.78,0-181.18,146.88-328.05,328.05-328.05s328.05,146.88,328.05,328.05Z"/>
      <g>
        <polygon class="cls-5" points="558.53 529.61 558.53 545.7 667.38 519.74 558.53 553.76 558.53 571.87 628.42 555.19 558.53 577.01 558.53 597.76 593.11 589.49 558.53 600.3 558.53 623.06 542.54 605.3 539.76 602.21 526.21 587.13 520.61 580.9 520.58 580.9 509.84 568.95 501.22 559.39 336.93 381.66 490.72 459.23 490.72 493.22 517.17 524.39 507.93 468.47 492.47 374.89 519.88 388.08 537.16 484.15 558.53 495.58 558.53 495.72 749.37 449.98 558.53 509.9 558.53 519.21 699.26 485.64 558.53 529.61"/>
        <rect class="cls-5" x="293.62" y="515.53" width="24.4" height="36.18"/>
        <rect class="cls-5" x="293.62" y="565.48" width="24.4" height="38.82"/>
        <rect class="cls-5" x="331.12" y="565.48" width="24.36" height="38.82"/>
        <rect class="cls-5" x="331.12" y="515.53" width="24.36" height="36.18"/>
        <rect class="cls-5" x="728.16" y="543.13" width="17.41" height="25.86"/>
        <rect class="cls-5" x="728.16" y="578.82" width="17.41" height="27.73"/>
        <rect class="cls-5" x="754.95" y="578.82" width="17.41" height="27.73"/>
        <rect class="cls-5" x="754.95" y="543.13" width="17.41" height="25.86"/>
        <polygon class="cls-5" points="914 624.42 914 634.01 807.23 634.12 803.27 634.12 807.41 633.67 892.07 624.35 826.94 555.22 749.33 472.85 599.15 627.13 687.26 634.22 382.56 634.5 508.16 625.78 501.28 618.2 496.24 612.64 484.81 600.06 476.92 591.33 323.54 422.35 121.48 624.42 193.56 629.5 266.51 634.6 195.54 634.67 88.56 634.78 88.56 624.53 173.89 536.32 323.54 381.66 489.12 562.28 498.5 572.5 508.79 583.72 515.08 590.6 528.25 604.96 531.66 608.68 547.89 626.37 567.6 626.65 749.33 449.99 828.81 534.16 914 624.42"/>
      </g>
      <g>
        <path class="cls-5" d="M95.51,706.29v20.9h-9.28v-50.47h21.34c10.79,0,16.58,5.91,16.58,13.74,0,6.7-3.71,10.47-7.77,11.92,3.05.99,6.76,3.75,6.76,12.69v2.38c0,3.42-.04,7.47.71,9.75h-9.03c-.9-2.19-.99-6.02-.99-11.17v-.85c0-6.09-1.61-8.88-10.06-8.88h-8.26ZM95.51,698.65h9.78c6.57,0,9.25-2.49,9.25-7.21s-2.96-7.09-8.82-7.09h-10.21v14.3Z"/>
        <path class="cls-5" d="M176.19,712.05c-2.1,9.12-8.96,15.82-21.19,15.82-15.69,0-23.28-11.37-23.28-25.7s7.74-26.19,23.71-26.19c12.91,0,19.41,7.51,20.73,15.95h-9.47c-1.31-4.44-4.34-8.41-11.58-8.41-9.73,0-13.58,8.79-13.58,18.33,0,9,3.46,18.49,13.87,18.49,7.35,0,10-4.66,11.27-8.28h9.52Z"/>
        <path class="cls-5" d="M212.17,714.33l-4.45,12.85h-9.33l17.43-50.47h11.83l18.18,50.47h-9.99l-4.65-12.85h-19.02ZM229.06,706.49c-4-11.55-6.41-18.44-7.59-22.74h-.07c-1.24,4.74-3.91,12.87-7.13,22.74h14.79Z"/>
        <path class="cls-5" d="M262.07,706.29v20.9h-9.28v-50.47h21.34c10.79,0,16.58,5.91,16.58,13.74,0,6.7-3.71,10.47-7.77,11.92,3.05.99,6.76,3.75,6.76,12.69v2.38c0,3.42-.04,7.47.71,9.75h-9.03c-.9-2.19-.99-6.02-.99-11.17v-.85c0-6.09-1.61-8.88-10.06-8.88h-8.26ZM262.07,698.65h9.78c6.57,0,9.25-2.49,9.25-7.21s-2.96-7.09-8.82-7.09h-10.21v14.3Z"/>
        <path class="cls-5" d="M311.59,684.56h-15.67v-7.84h40.79v7.84h-15.64v42.63h-9.49v-42.63Z"/>
        <path class="cls-5" d="M353.12,676.71v50.47h-9.47v-50.47h9.47Z"/>
        <path class="cls-5" d="M371.19,712.65c1.23,5.41,5.03,7.99,11.38,7.99s9.23-2.78,9.23-6.84c0-4.44-2.45-6.58-11.59-8.74-13.1-3.11-16.75-7.79-16.75-14.7,0-8.35,6.22-14.37,17.94-14.37,12.93,0,18.13,7.12,18.84,14.24h-9.56c-.66-3.58-2.75-7.06-9.55-7.06-5.02,0-7.96,2.15-7.96,6.16s2.39,5.51,10.78,7.48c14.58,3.47,17.57,8.98,17.57,15.88,0,8.85-6.65,15.19-19.65,15.19s-19.08-6.52-20.23-15.23h9.56Z"/>
        <path class="cls-5" d="M419.89,714.33l-4.45,12.85h-9.33l17.43-50.47h11.83l18.18,50.47h-9.99l-4.65-12.85h-19.02ZM436.78,706.49c-4-11.55-6.41-18.44-7.59-22.74h-.07c-1.24,4.74-3.91,12.87-7.13,22.74h14.79Z"/>
        <path class="cls-5" d="M460.5,727.19v-50.47h11.93c6.62,11.49,19.68,33.53,22.17,39.03h.12c-.54-5.68-.52-14.17-.52-22.44v-16.59h8.67v50.47h-11.29c-5.85-10.24-19.96-34.93-22.69-40.7h-.12c.36,4.87.45,14.62.45,23.68v17.02h-8.72Z"/>
        <path class="cls-5" d="M575.12,712.05c-2.1,9.12-8.96,15.82-21.19,15.82-15.69,0-23.28-11.37-23.28-25.7s7.74-26.19,23.71-26.19c12.91,0,19.41,7.51,20.73,15.95h-9.47c-1.31-4.44-4.34-8.41-11.58-8.41-9.73,0-13.58,8.79-13.58,18.33,0,9,3.46,18.49,13.87,18.49,7.35,0,10-4.66,11.27-8.28h9.52Z"/>
        <path class="cls-5" d="M630.2,701.74c0,13.99-8.21,26.18-24.44,26.18s-23.79-11.5-23.79-25.97,8.92-25.97,24.46-25.97c14.58,0,23.77,10.46,23.77,25.76ZM591.78,701.73c0,10.22,4.76,18.39,14.36,18.39,10.4,0,14.25-8.65,14.25-18.26s-4.38-18.09-14.36-18.09-14.25,7.8-14.25,17.95Z"/>
        <path class="cls-5" d="M649.02,676.71v30.18c0,10.45,5.51,13.45,11.31,13.45,6.7,0,11.1-3.42,11.1-13.45v-30.18h9.49v29.7c0,16.96-9.75,21.46-20.74,21.46s-20.67-4.76-20.67-21.16v-30h9.51Z"/>
        <path class="cls-5" d="M705.49,727.19l-18-50.47h10.17l7.98,23.95c2.39,7.17,4.42,13.67,5.57,18.64h.15c1.04-4.51,3.32-11.24,5.81-18.45l8.35-24.14h9.69l-18.53,50.47h-11.17Z"/>
        <path class="cls-5" d="M751.14,706.29v20.9h-9.28v-50.47h21.34c10.79,0,16.58,5.91,16.58,13.74,0,6.7-3.71,10.47-7.77,11.92,3.05.99,6.76,3.75,6.76,12.69v2.38c0,3.42-.04,7.47.71,9.75h-9.03c-.9-2.19-.99-6.02-.99-11.17v-.85c0-6.09-1.61-8.88-10.06-8.88h-8.25ZM751.14,698.65h9.78c6.57,0,9.25-2.49,9.25-7.21s-2.96-7.09-8.82-7.09h-10.21v14.3Z"/>
        <path class="cls-5" d="M823.7,704.79h-24.47v14.55h26.95l-1.15,7.84h-35.01v-50.47h34.79v7.84h-25.58v12.39h24.47v7.84Z"/>
        <path class="cls-5" d="M843.6,676.71v30.18c0,10.45,5.51,13.45,11.31,13.45,6.7,0,11.1-3.42,11.1-13.45v-30.18h9.49v29.7c0,16.96-9.75,21.46-20.74,21.46s-20.67-4.76-20.67-21.16v-30h9.51Z"/>
        <path class="cls-5" d="M896.89,706.29v20.9h-9.28v-50.47h21.34c10.79,0,16.58,5.91,16.58,13.74,0,6.7-3.71,10.47-7.77,11.92,3.05.99,6.76,3.75,6.76,12.69v2.38c0,3.42-.04,7.47.71,9.75h-9.03c-.9-2.19-.99-6.02-.99-11.17v-.85c0-6.09-1.61-8.88-10.06-8.88h-8.25ZM896.89,698.65h9.78c6.57,0,9.25-2.49,9.25-7.21s-2.96-7.09-8.82-7.09h-10.21v14.3Z"/>
      </g>
    </g>
    <g id="LogoBlanc" class="cls-3">
      <polygon class="cls-2" points="594.19 592.23 581.69 596.13 582.91 594.94 582.94 594.91 594.19 592.23"/>
      <polygon class="cls-2" points="629.59 557.84 617.01 561.78 618.27 560.56 618.3 560.53 629.59 557.84"/>
      <polygon class="cls-2" points="668.63 522.31 652.37 527.4 654 525.8 668.63 522.31"/>
      <polygon class="cls-2" points="689.05 491.73 690.23 490.62 700.58 488.14 689.05 491.73"/>
      <polygon class="cls-2" points="722.56 459.16 750.77 452.4 719.39 462.26 722.56 459.16"/>
      <path class="cls-2" d="M324.23,369.12h-.21c-4.01,0-7.84,1.64-10.66,4.49l-140,144.66v-.17c0-181.59,147.21-328.8,328.8-328.8s327.51,145.92,328.76,326.43l-68.59-72.66-.04-.03-.77-.8c-.35-.35-.7-.7-1.08-1.05-.38-.31-.73-.63-1.15-.91-.38-.28-.8-.52-1.22-.77s-.87-.45-1.29-.66c-.77-.35-1.57-.63-2.4-.8-.28-.1-.59-.14-.9-.17-.31-.1-.66-.14-1.01-.17-.38-.07-.8-.1-1.22-.1h-.49c-.56,0-1.12.03-1.67.1-.45.03-.9.1-1.36.21-.14,0-.24.03-.38.07l-185.63,44.52-10.31-5.54-16.02-89.21c-.84-4.67-3.9-8.67-8.15-10.73l-27.48-13.24c-2.05-.98-4.25-1.46-6.41-1.46-3.17,0-6.27,1.01-8.88,2.96-4.42,3.31-6.65,8.81-5.75,14.28l10.62,64.41-145.22-73.29c-2.12-1.04-4.42-1.57-6.69-1.57"/>
      <g>
        <line class="cls-2" x1="569.15" y1="637.16" x2="549.99" y2="637.2"/>
        <polygon class="cls-2" points="594.19 592.23 581.69 596.13 582.91 594.94 582.94 594.91 594.19 592.23"/>
        <polygon class="cls-2" points="629.59 557.84 617.01 561.78 618.27 560.56 618.3 560.53 629.59 557.84"/>
        <polygon class="cls-2" points="652.37 527.4 654 525.8 668.63 522.31 652.37 527.4"/>
        <polygon class="cls-2" points="689.05 491.73 690.23 490.62 700.58 488.14 689.05 491.73"/>
        <polygon class="cls-2" points="722.56 459.16 750.77 452.4 719.39 462.26 722.56 459.16"/>
        <polygon class="cls-2" points="559.53 512.46 559.53 521.79 690.23 490.62 689.05 491.73 689.01 491.76 559.53 532.21 559.53 548.34 654 525.8 652.37 527.4 559.53 556.42 559.53 574.56 618.27 560.56 617.01 561.78 559.53 579.72 559.53 600.52 582.91 594.94 581.69 596.13 581.65 596.16 559.53 603.06 559.53 625.88 543.51 608.08 540.72 604.97 527.14 589.86 521.53 583.62 521.5 583.62 510.73 571.64 502.09 562.06 337.44 383.92 349.84 390.15 349.87 390.19 491.57 461.67 491.57 495.74 518.08 526.98 508.82 470.93 493.32 377.13 520.8 390.36 538.11 486.64 559.53 498.1 559.53 498.24 722.56 459.16 719.39 462.26 559.53 512.46"/>
        <polygon class="cls-2" points="594.19 592.23 581.69 596.13 582.91 594.94 582.94 594.91 594.19 592.23"/>
        <polygon class="cls-2" points="629.59 557.84 617.01 561.78 618.27 560.56 618.3 560.53 629.59 557.84"/>
        <polygon class="cls-2" points="654 525.8 668.63 522.31 652.37 527.4 654 525.8"/>
        <polygon class="cls-2" points="690.23 490.62 700.58 488.14 689.05 491.73 690.23 490.62"/>
        <polygon class="cls-2" points="750.77 452.4 719.39 462.26 722.56 459.16 750.77 452.4"/>
        <rect class="cls-2" x="294.03" y="518.1" width="24.45" height="36.26"/>
        <rect class="cls-2" x="294.03" y="568.16" width="24.45" height="38.91"/>
        <rect class="cls-2" x="331.62" y="568.16" width="24.42" height="38.91"/>
        <rect class="cls-2" x="331.62" y="518.1" width="24.42" height="36.26"/>
        <rect class="cls-2" x="729.54" y="545.76" width="17.45" height="25.92"/>
        <rect class="cls-2" x="729.54" y="581.53" width="17.45" height="27.8"/>
        <rect class="cls-2" x="756.4" y="581.53" width="17.45" height="27.8"/>
        <rect class="cls-2" x="756.4" y="545.76" width="17.45" height="25.92"/>
        <polygon class="cls-2" points="594.19 592.23 581.69 596.13 582.91 594.94 582.94 594.91 594.19 592.23"/>
        <polygon class="cls-2" points="629.59 557.84 617.01 561.78 618.27 560.56 618.3 560.53 629.59 557.84"/>
        <polygon class="cls-2" points="668.63 522.31 652.37 527.4 654 525.8 668.63 522.31"/>
        <polygon class="cls-2" points="700.58 488.14 689.05 491.73 690.23 490.62 700.58 488.14"/>
        <polygon class="cls-2" points="722.56 459.16 750.77 452.4 719.39 462.26 722.56 459.16"/>
        <path class="cls-2" d="M193.75,632.32l73.12,5.12-71.13.07-107.22.1v-10.28l85.52-88.41c.66,10.87,1.88,21.6,3.62,32.15l-56.15,56.15,72.25,5.09Z"/>
        <line class="cls-2" x1="569.15" y1="637.16" x2="549.99" y2="637.2"/>
        <path class="cls-2" d="M266.86,637.44l-71.13.07-107.22.1v-10.28l85.52-88.41c.66,10.87,1.88,21.6,3.62,32.15l-56.15,56.15,72.25,5.09,73.12,5.12Z"/>
        <path class="cls-2" d="M915.82,627.23v9.61l-107.01.1h-3.97l4.15-.45,84.85-9.34-65.28-69.28-77.78-82.56-150.52,154.63,88.3,7.11-119.41.1-19.16.03-166.82.14,125.89-8.74-6.9-7.59-5.05-5.57-11.46-12.61-7.91-8.74-153.72-169.36-146.37,146.37c-1.74-10.55-2.96-21.28-3.62-32.15l148.67-153.65,1.32-1.36,165.95,181.03,9.4,10.24,10.31,11.25,6.31,6.9,13.2,14.39,3.41,3.73,16.27,17.73,19.75.28,5.71-5.54,15.08-14.67,19.44-18.91,15.95-15.5,19.44-18.88,15.92-15.47,22.75-22.12,13.93-13.55,18.43-17.94,11.88-11.53,23.62-22.96,10.17,10.8,69.49,73.57,85.38,90.46Z"/>
      </g>
      <g>
        <path class="cls-2" d="M93.74,707.84v20.95h-9.31v-50.59h21.39c10.81,0,16.61,5.93,16.61,13.77,0,6.71-3.72,10.5-7.79,11.95,3.06.99,6.78,3.76,6.78,12.72v2.38c0,3.43-.04,7.49.71,9.77h-9.05c-.9-2.19-.99-6.03-.99-11.19v-.86c0-6.1-1.62-8.9-10.08-8.9h-8.27ZM93.74,700.18h9.8c6.59,0,9.27-2.49,9.27-7.22s-2.97-7.11-8.84-7.11h-10.23v14.33Z"/>
        <path class="cls-2" d="M174.59,713.62c-2.11,9.15-8.98,15.85-21.24,15.85-15.73,0-23.33-11.4-23.33-25.76s7.76-26.25,23.76-26.25c12.94,0,19.45,7.53,20.78,15.99h-9.49c-1.32-4.45-4.35-8.43-11.61-8.43-9.75,0-13.61,8.81-13.61,18.37,0,9.02,3.47,18.53,13.9,18.53,7.36,0,10.02-4.67,11.3-8.3h9.54Z"/>
        <path class="cls-2" d="M210.66,715.9l-4.46,12.88h-9.36l17.47-50.59h11.86l18.22,50.59h-10.01l-4.66-12.88h-19.07ZM227.58,708.04c-4.01-11.58-6.43-18.48-7.6-22.79h-.07c-1.24,4.75-3.92,12.9-7.14,22.79h14.82Z"/>
        <path class="cls-2" d="M260.66,707.84v20.95h-9.31v-50.59h21.39c10.81,0,16.61,5.93,16.61,13.77,0,6.71-3.72,10.5-7.79,11.95,3.06.99,6.78,3.76,6.78,12.72v2.38c0,3.43-.04,7.49.71,9.77h-9.05c-.9-2.19-.99-6.03-.99-11.19v-.86c0-6.1-1.62-8.9-10.08-8.9h-8.27ZM260.66,700.18h9.8c6.59,0,9.27-2.49,9.27-7.22s-2.97-7.11-8.84-7.11h-10.23v14.33Z"/>
        <path class="cls-2" d="M310.3,686.05h-15.7v-7.86h40.89v7.86h-15.67v42.73h-9.51v-42.73Z"/>
        <path class="cls-2" d="M351.92,678.19v50.59h-9.49v-50.59h9.49Z"/>
        <path class="cls-2" d="M370.04,714.21c1.23,5.42,5.05,8.01,11.41,8.01s9.26-2.78,9.26-6.86c0-4.45-2.46-6.59-11.62-8.76-13.13-3.12-16.79-7.81-16.79-14.73,0-8.37,6.23-14.41,17.98-14.41,12.96,0,18.17,7.13,18.88,14.27h-9.58c-.66-3.59-2.75-7.08-9.57-7.08-5.03,0-7.98,2.16-7.98,6.17s2.39,5.52,10.8,7.5c14.62,3.48,17.61,9,17.61,15.92,0,8.87-6.67,15.22-19.7,15.22s-19.12-6.54-20.28-15.26h9.58Z"/>
        <path class="cls-2" d="M418.84,715.9l-4.46,12.88h-9.36l17.47-50.59h11.86l18.22,50.59h-10.01l-4.66-12.88h-19.07ZM435.77,708.04c-4.01-11.58-6.43-18.48-7.6-22.79h-.07c-1.24,4.75-3.92,12.9-7.14,22.79h14.82Z"/>
        <path class="cls-2" d="M459.54,728.78v-50.59h11.96c6.64,11.52,19.73,33.61,22.23,39.12h.12c-.54-5.7-.52-14.21-.52-22.49v-16.62h8.69v50.59h-11.31c-5.86-10.26-20.01-35.01-22.75-40.79h-.12c.37,4.88.45,14.65.45,23.74v17.06h-8.74Z"/>
        <path class="cls-2" d="M574.43,713.62c-2.11,9.15-8.98,15.85-21.24,15.85-15.73,0-23.33-11.4-23.33-25.76s7.76-26.25,23.76-26.25c12.94,0,19.45,7.53,20.78,15.99h-9.49c-1.32-4.45-4.35-8.43-11.61-8.43-9.75,0-13.61,8.81-13.61,18.37,0,9.02,3.47,18.53,13.9,18.53,7.37,0,10.02-4.67,11.3-8.3h9.54Z"/>
        <path class="cls-2" d="M629.63,703.28c0,14.02-8.23,26.24-24.49,26.24s-23.85-11.53-23.85-26.03,8.94-26.03,24.51-26.03c14.61,0,23.83,10.48,23.83,25.81ZM591.12,703.27c0,10.24,4.77,18.43,14.39,18.43,10.42,0,14.29-8.67,14.29-18.3s-4.39-18.13-14.4-18.13-14.28,7.82-14.28,18Z"/>
        <path class="cls-2" d="M648.5,678.19v30.25c0,10.48,5.53,13.48,11.33,13.48,6.71,0,11.13-3.43,11.13-13.48v-30.25h9.51v29.77c0,16.99-9.77,21.51-20.79,21.51s-20.72-4.77-20.72-21.21v-30.07h9.53Z"/>
        <path class="cls-2" d="M705.09,728.78l-18.04-50.59h10.19l8,24c2.39,7.19,4.43,13.7,5.58,18.68h.15c1.05-4.52,3.33-11.26,5.82-18.49l8.37-24.19h9.71l-18.57,50.59h-11.19Z"/>
        <path class="cls-2" d="M750.84,707.84v20.95h-9.3v-50.59h21.39c10.81,0,16.61,5.93,16.61,13.77,0,6.71-3.72,10.5-7.79,11.95,3.06.99,6.78,3.76,6.78,12.72v2.38c0,3.43-.04,7.49.71,9.77h-9.05c-.9-2.19-.99-6.03-.99-11.19v-.86c0-6.1-1.62-8.9-10.08-8.9h-8.27ZM750.84,700.18h9.8c6.59,0,9.27-2.49,9.27-7.22s-2.97-7.11-8.84-7.11h-10.23v14.33Z"/>
        <path class="cls-2" d="M823.57,706.34h-24.53v14.58h27.01l-1.15,7.86h-35.09v-50.59h34.87v7.86h-25.64v12.42h24.53v7.86Z"/>
        <path class="cls-2" d="M843.51,678.19v30.25c0,10.48,5.53,13.48,11.33,13.48,6.71,0,11.13-3.43,11.13-13.48v-30.25h9.51v29.77c0,16.99-9.77,21.51-20.79,21.51s-20.72-4.77-20.72-21.21v-30.07h9.53Z"/>
        <path class="cls-2" d="M896.92,707.84v20.95h-9.3v-50.59h21.39c10.81,0,16.61,5.93,16.61,13.77,0,6.71-3.72,10.5-7.79,11.95,3.06.99,6.78,3.76,6.78,12.72v2.38c0,3.43-.04,7.49.71,9.77h-9.05c-.9-2.19-.99-6.03-.99-11.19v-.86c0-6.1-1.62-8.9-10.08-8.9h-8.27ZM896.92,700.18h9.8c6.59,0,9.27-2.49,9.27-7.22s-2.97-7.11-8.84-7.11h-10.23v14.33Z"/>
      </g>
    </g>
    <g id="LogoNoir" class="cls-3">
      <polygon points="593.52 581.08 581.11 584.95 582.32 583.78 582.35 583.74 593.52 581.08"/>
      <polygon points="628.66 546.94 616.18 550.85 617.42 549.64 617.46 549.61 628.66 546.94"/>
      <polygon points="667.43 511.67 651.28 516.71 652.91 515.12 667.43 511.67"/>
      <polygon points="687.7 481.3 688.88 480.19 699.15 477.74 687.7 481.3"/>
      <polygon points="720.97 448.96 748.99 442.25 717.83 452.04 720.97 448.96"/>
      <path d="M325.48,359.56h-.21c-3.98,0-7.78,1.63-10.58,4.46l-139,143.64v-.17c0-180.3,146.16-326.46,326.46-326.46s325.18,144.88,326.42,324.11l-68.1-72.15-.04-.03-.76-.8c-.35-.35-.69-.69-1.07-1.04-.38-.31-.73-.62-1.14-.9-.38-.28-.8-.52-1.21-.76s-.86-.45-1.28-.66c-.76-.35-1.56-.62-2.39-.8-.28-.1-.59-.14-.9-.17-.31-.1-.66-.14-1-.17-.38-.07-.8-.1-1.21-.1h-.48c-.55,0-1.11.03-1.66.1-.45.03-.9.1-1.35.21-.14,0-.24.03-.38.07l-184.31,44.2-10.24-5.5-15.91-88.57c-.83-4.63-3.87-8.61-8.09-10.65l-27.29-13.14c-2.04-.97-4.22-1.45-6.36-1.45-3.15,0-6.22,1-8.82,2.94-4.39,3.29-6.61,8.75-5.71,14.18l10.55,63.95-144.19-72.77c-2.11-1.04-4.39-1.56-6.64-1.56"/>
      <g>
        <line x1="568.66" y1="625.7" x2="549.63" y2="625.73"/>
        <polygon points="593.52 581.08 581.11 584.95 582.32 583.78 582.35 583.74 593.52 581.08"/>
        <polygon points="628.66 546.94 616.18 550.85 617.42 549.64 617.46 549.61 628.66 546.94"/>
        <polygon points="651.28 516.71 652.91 515.12 667.43 511.67 651.28 516.71"/>
        <polygon points="687.7 481.3 688.88 480.19 699.15 477.74 687.7 481.3"/>
        <polygon points="720.97 448.96 748.99 442.25 717.83 452.04 720.97 448.96"/>
        <polygon points="559.11 501.88 559.11 511.15 688.88 480.19 687.7 481.3 687.67 481.33 559.11 521.49 559.11 537.5 652.91 515.12 651.28 516.71 559.11 545.53 559.11 563.54 617.42 549.64 616.18 550.85 559.11 568.66 559.11 589.31 582.32 583.78 581.11 584.95 581.07 584.99 559.11 591.84 559.11 614.49 543.2 596.82 540.43 593.74 526.95 578.73 521.38 572.54 521.34 572.54 510.66 560.64 502.08 551.13 338.59 374.26 350.9 380.45 350.94 380.48 491.63 451.45 491.63 485.28 517.95 516.3 508.75 460.65 493.36 367.51 520.65 380.65 537.84 476.25 559.11 487.63 559.11 487.77 720.97 448.96 717.83 452.04 559.11 501.88"/>
        <polygon points="593.52 581.08 581.11 584.95 582.32 583.78 582.35 583.74 593.52 581.08"/>
        <polygon points="628.66 546.94 616.18 550.85 617.42 549.64 617.46 549.61 628.66 546.94"/>
        <polygon points="652.91 515.12 667.43 511.67 651.28 516.71 652.91 515.12"/>
        <polygon points="688.88 480.19 699.15 477.74 687.7 481.3 688.88 480.19"/>
        <polygon points="748.99 442.25 717.83 452.04 720.97 448.96 748.99 442.25"/>
        <rect x="295.5" y="507.48" width="24.28" height="36"/>
        <rect x="295.5" y="557.18" width="24.28" height="38.63"/>
        <rect x="332.81" y="557.18" width="24.24" height="38.63"/>
        <rect x="332.81" y="507.48" width="24.24" height="36"/>
        <rect x="727.94" y="534.94" width="17.33" height="25.73"/>
        <rect x="727.94" y="570.46" width="17.33" height="27.6"/>
        <rect x="754.61" y="570.46" width="17.33" height="27.6"/>
        <rect x="754.61" y="534.94" width="17.33" height="25.73"/>
        <polygon points="593.52 581.08 581.11 584.95 582.32 583.78 582.35 583.74 593.52 581.08"/>
        <polygon points="628.66 546.94 616.18 550.85 617.42 549.64 617.46 549.61 628.66 546.94"/>
        <polygon points="667.43 511.67 651.28 516.71 652.91 515.12 667.43 511.67"/>
        <polygon points="699.15 477.74 687.7 481.3 688.88 480.19 699.15 477.74"/>
        <polygon points="720.97 448.96 748.99 442.25 717.83 452.04 720.97 448.96"/>
        <path d="M195.92,620.89l72.6,5.08-70.62.07-106.46.1v-10.2l84.91-87.78c.66,10.79,1.87,21.44,3.6,31.92l-55.75,55.75,71.73,5.05Z"/>
        <line x1="568.66" y1="625.7" x2="549.63" y2="625.73"/>
        <path d="M268.52,625.97l-70.62.07-106.46.1v-10.2l84.91-87.78c.66,10.79,1.87,21.44,3.6,31.92l-55.75,55.75,71.73,5.05,72.6,5.08Z"/>
        <path d="M912.86,615.84v9.55l-106.25.1h-3.94l4.12-.45,84.25-9.27-64.82-68.79-77.23-81.97-149.45,153.53,87.68,7.06-118.56.1-19.02.03-165.63.14,124.99-8.68-6.85-7.54-5.02-5.53-11.38-12.52-7.85-8.68-152.63-168.16-145.33,145.33c-1.73-10.48-2.94-21.13-3.6-31.92l147.61-152.56,1.31-1.35,164.77,179.74,9.34,10.17,10.24,11.17,6.26,6.85,13.11,14.28,3.39,3.7,16.15,17.6,19.61.28,5.67-5.5,14.98-14.56,19.3-18.78,15.84-15.39,19.3-18.75,15.81-15.36,22.58-21.96,13.83-13.45,18.3-17.81,11.79-11.45,23.45-22.79,10.1,10.72,69,73.05,84.77,89.82Z"/>
      </g>
      <g>
        <path d="M96.58,695.89v20.8h-9.24v-50.23h21.23c10.74,0,16.5,5.88,16.5,13.67,0,6.67-3.7,10.42-7.73,11.86,3.04.98,6.73,3.73,6.73,12.63v2.37c0,3.41-.04,7.44.7,9.7h-8.98c-.89-2.18-.98-5.99-.98-11.11v-.85c0-6.06-1.6-8.83-10.01-8.83h-8.22ZM96.58,688.29h9.73c6.54,0,9.2-2.48,9.2-7.17s-2.95-7.06-8.78-7.06h-10.16v14.23Z"/>
        <path d="M176.87,701.63c-2.09,9.08-8.91,15.74-21.09,15.74-15.62,0-23.16-11.32-23.16-25.57s7.71-26.07,23.59-26.07c12.85,0,19.32,7.48,20.63,15.87h-9.42c-1.31-4.42-4.32-8.37-11.53-8.37-9.68,0-13.51,8.75-13.51,18.24,0,8.96,3.45,18.4,13.8,18.4,7.31,0,9.95-4.64,11.22-8.24h9.47Z"/>
        <path d="M212.67,703.9l-4.43,12.79h-9.29l17.34-50.23h11.78l18.09,50.23h-9.94l-4.62-12.79h-18.93ZM229.48,696.09c-3.98-11.49-6.38-18.35-7.55-22.63h-.07c-1.23,4.71-3.89,12.8-7.09,22.63h14.72Z"/>
        <path d="M262.32,695.89v20.8h-9.24v-50.23h21.23c10.74,0,16.5,5.88,16.5,13.67,0,6.67-3.7,10.42-7.73,11.86,3.04.98,6.73,3.73,6.73,12.63v2.37c0,3.41-.04,7.44.7,9.7h-8.98c-.89-2.18-.98-5.99-.98-11.11v-.85c0-6.06-1.6-8.83-10.01-8.83h-8.22ZM262.32,688.29h9.73c6.54,0,9.2-2.48,9.2-7.17s-2.95-7.06-8.78-7.06h-10.16v14.23Z"/>
        <path d="M311.61,674.26h-15.59v-7.81h40.6v7.81h-15.56v42.42h-9.44v-42.42Z"/>
        <path d="M352.93,666.46v50.23h-9.42v-50.23h9.42Z"/>
        <path d="M370.92,702.22c1.22,5.38,5.01,7.95,11.33,7.95s9.19-2.76,9.19-6.81c0-4.41-2.44-6.55-11.54-8.7-13.04-3.09-16.67-7.75-16.67-14.63,0-8.31,6.19-14.3,17.85-14.3,12.87,0,18.04,7.08,18.75,14.17h-9.52c-.65-3.56-2.74-7.03-9.5-7.03-4.99,0-7.92,2.14-7.92,6.13s2.37,5.48,10.72,7.45c14.51,3.46,17.48,8.94,17.48,15.81,0,8.8-6.62,15.12-19.56,15.12s-18.99-6.49-20.14-15.15h9.52Z"/>
        <path d="M419.38,703.9l-4.43,12.79h-9.29l17.34-50.23h11.78l18.09,50.23h-9.94l-4.62-12.79h-18.93ZM436.19,696.09c-3.98-11.49-6.38-18.35-7.55-22.63h-.07c-1.23,4.71-3.89,12.8-7.09,22.63h14.72Z"/>
        <path d="M459.79,716.69v-50.23h11.87c6.59,11.44,19.59,33.37,22.07,38.84h.12c-.54-5.66-.52-14.1-.52-22.33v-16.51h8.63v50.23h-11.23c-5.82-10.19-19.87-34.76-22.58-40.5h-.12c.36,4.85.44,14.55.44,23.57v16.93h-8.68Z"/>
        <path d="M573.86,701.63c-2.09,9.08-8.91,15.74-21.09,15.74-15.62,0-23.16-11.32-23.16-25.57s7.71-26.07,23.59-26.07c12.85,0,19.32,7.48,20.63,15.87h-9.42c-1.31-4.42-4.32-8.37-11.53-8.37-9.68,0-13.51,8.75-13.51,18.24,0,8.96,3.45,18.4,13.8,18.4,7.31,0,9.95-4.64,11.22-8.24h9.47Z"/>
        <path d="M628.67,691.36c0,13.92-8.17,26.05-24.32,26.05s-23.68-11.45-23.68-25.84,8.88-25.84,24.34-25.84c14.5,0,23.66,10.41,23.66,25.63ZM590.43,691.35c0,10.17,4.73,18.3,14.29,18.3,10.35,0,14.19-8.61,14.19-18.17s-4.36-18-14.29-18-14.18,7.77-14.18,17.87Z"/>
        <path d="M647.4,666.46v30.03c0,10.4,5.49,13.38,11.25,13.38,6.67,0,11.05-3.41,11.05-13.38v-30.03h9.44v29.56c0,16.87-9.7,21.35-20.64,21.35s-20.57-4.73-20.57-21.06v-29.86h9.46Z"/>
        <path d="M703.59,716.69l-17.92-50.23h10.12l7.94,23.83c2.37,7.14,4.4,13.6,5.54,18.55h.15c1.04-4.49,3.3-11.18,5.78-18.36l8.31-24.02h9.64l-18.44,50.23h-11.12Z"/>
        <path d="M749.01,695.89v20.8h-9.24v-50.23h21.24c10.74,0,16.5,5.88,16.5,13.67,0,6.67-3.7,10.42-7.73,11.86,3.04.98,6.73,3.73,6.73,12.63v2.37c0,3.41-.04,7.44.71,9.7h-8.99c-.89-2.18-.98-5.99-.98-11.11v-.85c0-6.06-1.6-8.83-10.01-8.83h-8.22ZM749.01,688.29h9.73c6.54,0,9.2-2.48,9.2-7.17s-2.95-7.06-8.78-7.06h-10.16v14.23Z"/>
        <path d="M821.23,694.4h-24.35v14.48h26.82l-1.14,7.81h-34.85v-50.23h34.62v7.81h-25.46v12.33h24.35v7.81Z"/>
        <path d="M841.03,666.46v30.03c0,10.4,5.49,13.38,11.25,13.38,6.67,0,11.05-3.41,11.05-13.38v-30.03h9.44v29.56c0,16.87-9.7,21.35-20.64,21.35s-20.57-4.73-20.57-21.06v-29.86h9.46Z"/>
        <path d="M894.05,695.89v20.8h-9.24v-50.23h21.24c10.74,0,16.5,5.88,16.5,13.67,0,6.67-3.7,10.42-7.73,11.86,3.04.98,6.73,3.73,6.73,12.63v2.37c0,3.41-.04,7.44.71,9.7h-8.99c-.89-2.18-.98-5.99-.98-11.11v-.85c0-6.06-1.6-8.83-10.01-8.83h-8.22ZM894.05,688.29h9.73c6.54,0,9.2-2.48,9.2-7.17s-2.95-7.06-8.78-7.06h-10.16v14.23Z"/>
      </g>
    </g>
  </g>
</svg>